name processed_emg_signals
nRows=99
nColumns=7
 
endheader
time	LGLTMED	LRF	LADDLONG	LST	LTA	LGM
0.0	0.137394340198944	0.0400914621353287	0.0241954273013719	0.1096776660500551	0.0111199927168953	0.0073145876796287
0.001	0.1514185201619242	0.0436291405644502	0.0156289685168234	0.1249658296223114	0.0100230394788122	0.006396479331104
0.002	0.1655069588827711	0.0471937741191376	0.007054825814809	0.1402685659196328	0.0089334752403451	0.005445015389751
0.003	0.1796516067400772	0.0507833807634095	0.0015221406166947	0.1555760536398069	0.0078518679907918	0.0044592378704142
0.004	0.193844346954089	0.0543959479060192	0.0100970686857842	0.1708784292669623	0.0067787691169024	0.0034381683999022
0.005	0.2080770067791256	0.0580294351548513	0.0186651009166817	0.1861658002006514	0.0057147123206859	0.0023808082352107
0.006	0.22234136876625	0.0616817771038448	0.0272213909057782	0.2014282579081991	0.0046602125648703	0.0012861383331954
0.007	0.23662918206451	0.0653508861425519	0.0357611096938324	0.2166558910630381	0.0036157650486671	0.0001531194750474
0.008	0.2509321737297695	0.069034655279245	0.0442794520370145	0.2318387986347354	0.0025818442164175	0.0010193075512916
0.009000000000000001	0.2652420600103269	0.072730960970071	0.0527716425626733	0.2469671028993151	0.0015589028015257	0.0022322217078463
0.01	0.2795505575786455	0.0764376659478232	0.0612329417978773	0.2620309623413348	0.0005473709080068	0.0034867213997584
0.011	0.293849394678977	0.0801526220454426	0.0696586520607619	0.277020584421881	0.0004523448682194	0.004783924102436
0.012	0.3081303221613941	0.083873673010338	0.0780441232070261	0.2919262381886944	0.0014398622762596	0.0061249659205975
0.013000000000000001	0.3223851243738957	0.0875986573065611	0.0863847582248156	0.3067382667059595	0.0024148242035767	0.0075110010773325
0.014	0.3366056298860402	0.091325410901913	0.0946760186732354	0.3214470992820969	0.0033768994239933	0.0089432013315973
0.015	0.3507837220195238	0.0950517700371083	0.1029134299601655	0.3360432634743706	0.0043257832988417	0.010422755322755
0.016	0.364911349163194	0.0987755739742441	0.1110925864560062	0.3505173968496709	0.005261198429901	0.0119508678411618
0.017	0.3789805348525529	0.1024946677216092	0.1192091564398391	0.3648602584813884	0.0061828952629842	0.0135287590242627
0.018000000000000002	0.3929833875962897	0.106206904731672	0.1272588868751164	0.379062740162918	0.0070906526412901	0.0151576634783901
0.019	0.406912110434902	0.1099101495694425	0.1352376080122394	0.3931158773188742	0.0079842783078957	0.0168388293271815
0.02	0.4207590102187145	0.1136022805483333	0.1431412378156276	0.4070108595953454	0.0088636093569325	0.018573517188301
0.021	0.4345165065945626	0.1172811923308607	0.1509657862135509	0.4207390411103665	0.0097285126331358	0.0203629990806702
0.022	0.4481771406916078	0.1209447984913887	0.1587073591689585	0.4342919503452875	0.010578885079505	0.0222085572648041
0.023	0.4617335834968384	0.1245910340383482	0.1663621625701651	0.447661299657014	0.0114146540328175	0.0241114830191806
0.024	0.475178643911097	0.1282178578927297	0.1739265059408881	0.4608389943907701	0.0122357774668054	0.026073075355851
0.025	0.4885052764772753	0.1318232553198732	0.181396805969553	0.4738171415733229	0.0130422441827952	0.0280946396787393
0.026000000000000002	0.501706588773742	0.1354052403112629	0.1887695898577868	0.4865880581674719	0.0138340739477427	0.0301774863882345
0.027	0.5147758484680017	0.1389618579128904	0.1960414984887694	0.4991442788700077	0.0146113175797021	0.0323229294358178
0.028	0.5277064900277465	0.1424911864970266	0.2032092894157278	0.5114785634371161	0.0153740569810183	0.0345322848324922
0.029	0.540492121088215	0.1459913399737677	0.2102698396710193	0.5235839035236965	0.0161224051197676	0.0368068691149182
0.03	0.5531265284762662	0.1494604699389083	0.2172201483961708	0.5354535290261754	0.0168565059602865	0.0391479977731885
0.031	0.5656036838925833	0.1528967677542436	0.2240573392932588	0.5470809139216593	0.0175765343438369	0.0415569836442888
0.032	0.5779177492537779	0.1562984665568152	0.2307786628979563	0.5584597815988861	0.0182826958206163	0.0440351352753429
0.033	0.5900630816961255	0.1596638431932024	0.2373814986747738	0.5695841096786854	0.0189752264343779	0.0465837552607116
0.034	0.6020342382426473	0.1629912200752671	0.2438633569358778	0.5804481343229754	0.0196543924609846	0.0492041385570097
0.035	0.6138259801347565	0.166278966953444	0.2502218805844597	0.5910463540328076	0.0203204901021729	0.0518975707799855
0.036000000000000004	0.6254332768294651	0.1695255026035617	0.2564548466838964	0.6013735329370936	0.020973845135889	0.0546653264871471
0.037	0.6368513096630075	0.1727292964229337	0.2625601678546119	0.6114247035748528	0.0216148125244874	0.05750866744994
0.038	0.648075475180733	0.1758888699318099	0.2685358934997572	0.6211951691746773	0.0222437759821949	0.0604288409191603
0.039	0.6591013881324186	0.1790027981762416	0.2743802108611716	0.6306805054357869	0.0228611475032371	0.0634270778872071
0.04	0.6699248841312692	0.1820697110291721	0.2800914459072918	0.6398765618157161	0.0234673668520848	0.0665045913506339
0.041	0.6805420219741956	0.1850882943874724	0.2856680640541054	0.6487794623301862	0.0240629010173008	0.0696625745763134
0.042	0.6909490856213902	0.1880572912635432	0.2911086707206725	0.6573856058713968	0.0246482436304915	0.0729021993743729
0.043000000000000003	0.7011425858336372	0.190975502771524	0.2964120117209036	0.6656916660516611	0.0252239143519223	0.0762246143808301
0.044	0.7111192614672925	0.1938417890086591	0.3015769734930339	0.673694590580266	0.0257904582243228	0.0796309433526984
0.045	0.720876080427953	0.1966550698330402	0.3066025831684003	0.6813916001829563	0.0263484449964184	0.0831222834781477
0.046	0.7304102402854764	0.199414325538724	0.3114880084814523	0.6887801870759486	0.0268984684176863	0.0866997037041344
0.047	0.7397191685540166	0.2021185974296255	0.3162325575231285	0.6958581130097884	0.0274411455058081	0.0903642430836937
0.048	0.7488005226416186	0.2047669882932383	0.3208356783398959	0.7026234069025505	0.0279771157882236	0.0941169091449492
0.049	0.7576521894740172	0.2073586627759779	0.3252969583817826	0.7090743620859543	0.0285070405191107	0.097958676283614
0.05	0.7662722847976238	0.2098928476620496	0.3296161238023939	0.7152095331912797	0.0290316018730912	0.1018904841805834
0.051000000000000004	0.774659152166175	0.2123688320584644	0.3337930386148902	0.7210277327045711	0.0295515021168579	0.1059132362459013
0.052000000000000005	0.7828113616152786	0.214785967488655	0.3378277037077085	0.7265280272225102	0.0300674627599783	0.1100277980901365
0.053	0.7907277080284332	0.2171436678974466	0.3417202557240502	0.7317097334417166	0.0305802236860764	0.114234996023887
0.054	0.798407209197377	0.2194414095704641	0.3454709658090558	0.7365724139145248	0.0310905422656374	0.1185356155858323
0.055	0.8058491035787668	0.2216787309705986	0.3490802382287712	0.7411158726037632	0.031599192451639	0.1229304000996041
0.056	0.8130528477476625	0.2238552324949315	0.3525486088647462	0.7453401502680085	0.032106963859167	0.1274200492594316
0.057	0.8200181135474303	0.2259705761546579	0.3558767435879823	0.7492455197075992	0.0326146608301436	0.1320052177444866
0.058	0.8267447849341985	0.2280244851808447	0.3590654365157266	0.7528324809007765	0.0331231014842908	0.1366865138615886
0.059000000000000004	0.8332329545137447	0.2300167435585665	0.3621156081544818	0.7561017560581377	0.0336331167574323	0.1414644982159346
0.06	0.8394829197684359	0.2319471954926326	0.3650283034318969	0.7590542846225676	0.0341455494282854	0.1463396824095291
0.061	0.8454951789715626	0.2338157448080922	0.3678046896201771	0.7616912182404392	0.0346612531348795	0.1513125277670804
0.062	0.8512704267863536	0.2356223542896754	0.3704460541533529	0.7640139157283884	0.0351810913816927	0.1563834440892802
0.063	0.8568095495463246	0.2373670449640131	0.3729538023407208	0.7660239380579406	0.03570593653863	0.1615527884334759
0.064	0.862113620213891	0.2390498953285035	0.3753294549787349	0.7677230433782103	0.0362366688328577	0.1668208639216883
0.065	0.8671838930143956	0.2406710405305517	0.3775746458644549	0.7691131820943795	0.0367741753345995	0.1721879185757329
0.066	0.8720217977443486	0.2422306715002233	0.3796911192127684	0.7701964920172485	0.0373193489378781	0.177654144178965
0.067	0.8766289337544514	0.2437290340394876	0.3816807269812044	0.7709752935965494	0.0378730873372809	0.1832196751638577
0.068	0.881007063610313	0.2451664278705147	0.3835454261053871	0.771452085248327	0.0384362920017462	0.1888845875245159
0.069	0.8851581064377114	0.2465432056454796	0.3852872756492957	0.7716295387843095	0.0390098671464062	0.1946488977530805
0.07	0.8890841309634808	0.2478597719199852	0.3869084338747794	0.7715104949492457	0.0395947187035183	0.2005125617989295
0.07100000000000001	0.8927873482682503	0.2491165820914672	0.3884111552345528	0.77109795907056	0.0401917532934872	0.2064754740493535
0.07200000000000001	0.8962701042717446	0.2503141413041554	0.3897977872925952	0.7703950968236207	0.0408018771969653	0.2125374663301034
0.073	0.8995348719759468	0.2514530033213136	0.3910707675756903	0.7694052301153034	0.0414259953289729	0.2186983069237912
0.074	0.9025842434952582	0.2525337693654373	0.3922326203586281	0.7681318330878857	0.0420650102158812	0.2249576996038165
0.075	0.905420921906039	0.2535570869268196	0.393285953385077	0.7665785282443333	0.042719820976148	0.2313152826811478
0.076	0.9080477129503854	0.2545236485406914	0.3942334545246179	0.7647490826943827	0.0433913223055949	0.2377706280611123
0.077	0.910467516630669	0.2554341905331488	0.3950778883667702	0.7626474045189064	0.0440804034681294	0.2443232403070546
0.078	0.9126833187322247	0.2562894917362196	0.395822092751605	0.7602775392478612	0.0447879472928023	0.2509725557074713
0.079	0.9146981823108306	0.2570903721730671	0.3964689752373505	0.7576436664453533	0.0455148291781433	0.2577179413431594
0.08	0.9165152391797822	0.2578376917139206	0.397021509504788	0.7547500963936646	0.04626191610473	0.2645586941510063
0.081	0.9181376814289086	0.2585323487045687	0.3974827316983566	0.7516012668667746	0.0470300656569374	0.2714940399811939
0.082	0.9195687530054172	0.2591752785690559	0.3978557367041891	0.7482017399825482	0.0478201250547819	0.2785231326445683
0.083	0.9208117413842964	0.2597674523885082	0.3981436743645521	0.744556199121379	0.0486329301967377	0.2856450529467855
0.084	0.9218699693545972	0.2603098754587922	0.3983497456292393	0.7406694458975907	0.0494693047143656	0.2928588077056527
0.085	0.9227467869467264	0.2608035858294451	0.3984771986447889	0.7365463971683511	0.0503300590395845	0.3001633287483679
0.08600000000000001	0.92344556352511	0.2612496528262759	0.3985293247828297	0.7321920820629749	0.0512159894854074	0.3075574718862154
0.08700000000000001	0.9239696800695985	0.2616491755599081	0.3985094546100309	0.7276116390135627	0.0521278773409839	0.3150400158662801
0.088	0.9243225216678675	0.26200328142219	0.3984209538028068	0.722810312765945	0.0530664879818978	0.3226096613026858
0.089	0.9245074702392336	0.2623131245718903	0.3982672190108404	0.7177934513481512	0.054032569996751	0.3302650295933023
0.09	0.924527897508175	0.2625798844110426	0.3980516736735693	0.7125665029722847	0.055026854331175	0.338004661831054
0.091	0.9243871582433858	0.2628047640530269	0.3977777637938819	0.707135012845039	0.056050053450484	0.3458270177212179
0.092	0.924088583775876	0.2629889887835305	0.3974489536729449	0.7015046198620611	0.0571028605221518	0.3537304745172975
0.093	0.9236354758078984	0.2631338045156848	0.3970687216103664	0.6956810531629841	0.0581859486192885	0.3617133259883635
0.094	0.9230311005228544	0.2632404762406645	0.3966405555738431	0.6896701285270711	0.0592999699461107	0.369773781430287
0.095	0.9222786830054298	0.2633102864753887	0.3961679488434285	0.6834777445940352	0.0604455550863395	0.3779099647324873
0.096	0.9213814019797594	0.263344533709094	0.3956543956353202	0.6771098789001169	0.0616233122752533	0.3861199135109152
0.097	0.9203423848721184	0.263344530850825	0.3951033867112224	0.6705725837245997	0.0628338266959771	0.3944015783174381
0.098	0.9191647032028352	0.2633116036794701	0.394518404978828	0.6638719817458774	0.0640776598004697	0.4027528219355799
